<?xml version="1.0" encoding="UTF-8" standalone="no"?>
<!DOCTYPE svg PUBLIC "-//W3C//DTD SVG 1.1//EN"
 "http://www.w3.org/Graphics/SVG/1.1/DTD/svg11.dtd">
<!-- Generated by graphviz version 12.2.1 (20241206.2353)
 -->
<!-- Title: G Pages: 1 -->
<svg width="1227pt" height="87pt"
 viewBox="0.00 0.00 1227.45 86.95" xmlns="http://www.w3.org/2000/svg" xmlns:xlink="http://www.w3.org/1999/xlink">
<g id="graph0" class="graph" transform="scale(1 1) rotate(0) translate(21.6 65.35)">
<title>G</title>
<polygon fill="#111111" stroke="none" points="-21.6,21.6 -21.6,-65.35 1205.85,-65.35 1205.85,21.6 -21.6,21.6"/>
<!-- dist/lib/controllers/devices/MIDIStructorUI.js -->
<g id="node1" class="node">
<title>dist/lib/controllers/devices/MIDIStructorUI.js</title>
<path fill="none" stroke="#ff6c60" d="M269.08,-23.75C269.08,-23.75 7.92,-23.75 7.92,-23.75 3.96,-23.75 0,-19.79 0,-15.83 0,-15.83 0,-7.92 0,-7.92 0,-3.96 3.96,0 7.92,0 7.92,0 269.08,0 269.08,0 273.04,0 277,-3.96 277,-7.92 277,-7.92 277,-15.83 277,-15.83 277,-19.79 273.04,-23.75 269.08,-23.75"/>
<text text-anchor="middle" x="138.5" y="-6.45" font-family="Arial" font-size="14.00" fill="#ff6c60">dist/lib/controllers/devices/MIDIStructorUI.js</text>
</g>
<!-- dist/lib/controllers/devices/midistructor/widgets/AllMidiStructorWidgets.js -->
<g id="node2" class="node">
<title>dist/lib/controllers/devices/midistructor/widgets/AllMidiStructorWidgets.js</title>
<path fill="none" stroke="#ff6c60" d="M753.08,-43.75C753.08,-43.75 320.92,-43.75 320.92,-43.75 316.96,-43.75 313,-39.79 313,-35.83 313,-35.83 313,-27.92 313,-27.92 313,-23.96 316.96,-20 320.92,-20 320.92,-20 753.08,-20 753.08,-20 757.04,-20 761,-23.96 761,-27.92 761,-27.92 761,-35.83 761,-35.83 761,-39.79 757.04,-43.75 753.08,-43.75"/>
<text text-anchor="middle" x="537" y="-26.45" font-family="Arial" font-size="14.00" fill="#ff6c60">dist/lib/controllers/devices/midistructor/widgets/AllMidiStructorWidgets.js</text>
</g>
<!-- dist/lib/controllers/devices/MIDIStructorUI.js&#45;&gt;dist/lib/controllers/devices/midistructor/widgets/AllMidiStructorWidgets.js -->
<g id="edge1" class="edge">
<title>dist/lib/controllers/devices/MIDIStructorUI.js&#45;&gt;dist/lib/controllers/devices/midistructor/widgets/AllMidiStructorWidgets.js</title>
<path fill="none" stroke="#757575" d="M277.34,-18.83C285.17,-19.22 293.13,-19.62 301.18,-20.03"/>
<polygon fill="#757575" stroke="#757575" points="300.93,-23.52 311.1,-20.53 301.29,-16.53 300.93,-23.52"/>
</g>
<!-- dist/lib/controllers/devices/midistructor/MIDIStructorWidgets.js -->
<g id="node3" class="node">
<title>dist/lib/controllers/devices/midistructor/MIDIStructorWidgets.js</title>
<path fill="none" stroke="#ff6c60" d="M1176.33,-23.75C1176.33,-23.75 804.92,-23.75 804.92,-23.75 800.96,-23.75 797,-19.79 797,-15.83 797,-15.83 797,-7.92 797,-7.92 797,-3.96 800.96,0 804.92,0 804.92,0 1176.33,0 1176.33,0 1180.29,0 1184.25,-3.96 1184.25,-7.92 1184.25,-7.92 1184.25,-15.83 1184.25,-15.83 1184.25,-19.79 1180.29,-23.75 1176.33,-23.75"/>
<text text-anchor="middle" x="990.62" y="-6.45" font-family="Arial" font-size="14.00" fill="#ff6c60">dist/lib/controllers/devices/midistructor/MIDIStructorWidgets.js</text>
</g>
<!-- dist/lib/controllers/devices/midistructor/widgets/AllMidiStructorWidgets.js&#45;&gt;dist/lib/controllers/devices/midistructor/MIDIStructorWidgets.js -->
<g id="edge3" class="edge">
<title>dist/lib/controllers/devices/midistructor/widgets/AllMidiStructorWidgets.js&#45;&gt;dist/lib/controllers/devices/midistructor/MIDIStructorWidgets.js</title>
<path fill="none" stroke="#757575" d="M761.5,-21.98C769.49,-21.62 777.5,-21.27 785.46,-20.92"/>
<polygon fill="#757575" stroke="#757575" points="785.35,-24.42 795.18,-20.49 785.04,-17.43 785.35,-24.42"/>
</g>
<!-- dist/lib/controllers/devices/midistructor/MIDIStructorWidgets.js&#45;&gt;dist/lib/controllers/devices/MIDIStructorUI.js -->
<g id="edge2" class="edge">
<title>dist/lib/controllers/devices/midistructor/MIDIStructorWidgets.js&#45;&gt;dist/lib/controllers/devices/MIDIStructorUI.js</title>
<path fill="none" stroke="#757575" d="M796.6,-10.97C784.55,-10.93 772.61,-10.9 761,-10.88 561.89,-10.44 512.11,-10.3 313,-10.88 305.03,-10.9 296.85,-10.93 288.59,-10.96"/>
<polygon fill="#757575" stroke="#757575" points="288.79,-7.46 278.81,-11 288.82,-14.46 288.79,-7.46"/>
</g>
</g>
</svg>
