<?xml version="1.0" encoding="UTF-8" standalone="no"?>
<!DOCTYPE svg PUBLIC "-//W3C//DTD SVG 1.1//EN"
 "http://www.w3.org/Graphics/SVG/1.1/DTD/svg11.dtd">
<!-- Generated by graphviz version 12.2.1 (20241206.2353)
 -->
<!-- Title: G Pages: 1 -->
<svg width="2429pt" height="347pt"
 viewBox="0.00 0.00 2429.20 347.08" xmlns="http://www.w3.org/2000/svg" xmlns:xlink="http://www.w3.org/1999/xlink">
<g id="graph0" class="graph" transform="scale(1 1) rotate(0) translate(21.6 325.48)">
<title>G</title>
<polygon fill="#111111" stroke="none" points="-21.6,21.6 -21.6,-325.48 2407.6,-325.48 2407.6,21.6 -21.6,21.6"/>
<!-- dist/lib/controllers/devices/MIDIStructorUI.js -->
<g id="node1" class="node">
<title>dist/lib/controllers/devices/MIDIStructorUI.js</title>
<path fill="none" stroke="#ff6c60" d="M269.08,-177.88C269.08,-177.88 7.92,-177.88 7.92,-177.88 3.96,-177.88 0,-173.92 0,-169.96 0,-169.96 0,-162.04 0,-162.04 0,-158.08 3.96,-154.12 7.92,-154.12 7.92,-154.12 269.08,-154.12 269.08,-154.12 273.04,-154.12 277,-158.08 277,-162.04 277,-162.04 277,-169.96 277,-169.96 277,-173.92 273.04,-177.88 269.08,-177.88"/>
<text text-anchor="middle" x="138.5" y="-160.57" font-family="Arial" font-size="14.00" fill="#ff6c60">dist/lib/controllers/devices/MIDIStructorUI.js</text>
</g>
<!-- dist/lib/controllers/devices/midistructor/widgets/AllMidiStructorWidgets.js -->
<g id="node2" class="node">
<title>dist/lib/controllers/devices/midistructor/widgets/AllMidiStructorWidgets.js</title>
<path fill="none" stroke="#ff6c60" d="M753.08,-177.88C753.08,-177.88 320.92,-177.88 320.92,-177.88 316.96,-177.88 313,-173.92 313,-169.96 313,-169.96 313,-162.04 313,-162.04 313,-158.08 316.96,-154.12 320.92,-154.12 320.92,-154.12 753.08,-154.12 753.08,-154.12 757.04,-154.12 761,-158.08 761,-162.04 761,-162.04 761,-169.96 761,-169.96 761,-173.92 757.04,-177.88 753.08,-177.88"/>
<text text-anchor="middle" x="537" y="-160.57" font-family="Arial" font-size="14.00" fill="#ff6c60">dist/lib/controllers/devices/midistructor/widgets/AllMidiStructorWidgets.js</text>
</g>
<!-- dist/lib/controllers/devices/MIDIStructorUI.js&#45;&gt;dist/lib/controllers/devices/midistructor/widgets/AllMidiStructorWidgets.js -->
<g id="edge1" class="edge">
<title>dist/lib/controllers/devices/MIDIStructorUI.js&#45;&gt;dist/lib/controllers/devices/midistructor/widgets/AllMidiStructorWidgets.js</title>
<path fill="none" stroke="#757575" d="M277.34,-166C285.17,-166 293.13,-166 301.18,-166"/>
<polygon fill="#757575" stroke="#757575" points="301.1,-169.5 311.1,-166 301.1,-162.5 301.1,-169.5"/>
</g>
<!-- dist/lib/controllers/devices/midistructor/MIDIStructorWidgets.js -->
<g id="node3" class="node">
<title>dist/lib/controllers/devices/midistructor/MIDIStructorWidgets.js</title>
<path fill="none" stroke="#ff6c60" d="M1251.33,-303.88C1251.33,-303.88 879.92,-303.88 879.92,-303.88 875.96,-303.88 872,-299.92 872,-295.96 872,-295.96 872,-288.04 872,-288.04 872,-284.08 875.96,-280.12 879.92,-280.12 879.92,-280.12 1251.33,-280.12 1251.33,-280.12 1255.29,-280.12 1259.25,-284.08 1259.25,-288.04 1259.25,-288.04 1259.25,-295.96 1259.25,-295.96 1259.25,-299.92 1255.29,-303.88 1251.33,-303.88"/>
<text text-anchor="middle" x="1065.62" y="-286.57" font-family="Arial" font-size="14.00" fill="#ff6c60">dist/lib/controllers/devices/midistructor/MIDIStructorWidgets.js</text>
</g>
<!-- dist/lib/controllers/devices/midistructor/widgets/AllMidiStructorWidgets.js&#45;&gt;dist/lib/controllers/devices/midistructor/MIDIStructorWidgets.js -->
<g id="edge4" class="edge">
<title>dist/lib/controllers/devices/midistructor/widgets/AllMidiStructorWidgets.js&#45;&gt;dist/lib/controllers/devices/midistructor/MIDIStructorWidgets.js</title>
<path fill="none" stroke="#757575" d="M607.19,-178.34C653.16,-188.64 713.54,-206.38 761,-235 780.38,-246.69 776.45,-261.53 797,-271 816.92,-280.18 838.55,-286.69 860.6,-291.21"/>
<polygon fill="#757575" stroke="#757575" points="859.84,-294.63 870.32,-293.05 861.14,-287.75 859.84,-294.63"/>
</g>
<!-- dist/lib/controllers/devices/midistructor/widgets/ActiveClipWidgetComponent.js -->
<g id="node4" class="node">
<title>dist/lib/controllers/devices/midistructor/widgets/ActiveClipWidgetComponent.js</title>
<path fill="none" stroke="#ff6c60" d="M1299.71,-261.88C1299.71,-261.88 831.54,-261.88 831.54,-261.88 827.58,-261.88 823.62,-257.92 823.62,-253.96 823.62,-253.96 823.62,-246.04 823.62,-246.04 823.62,-242.08 827.58,-238.12 831.54,-238.12 831.54,-238.12 1299.71,-238.12 1299.71,-238.12 1303.67,-238.12 1307.62,-242.08 1307.62,-246.04 1307.62,-246.04 1307.62,-253.96 1307.62,-253.96 1307.62,-257.92 1303.67,-261.88 1299.71,-261.88"/>
<text text-anchor="middle" x="1065.62" y="-244.57" font-family="Arial" font-size="14.00" fill="#ff6c60">dist/lib/controllers/devices/midistructor/widgets/ActiveClipWidgetComponent.js</text>
</g>
<!-- dist/lib/controllers/devices/midistructor/widgets/AllMidiStructorWidgets.js&#45;&gt;dist/lib/controllers/devices/midistructor/widgets/ActiveClipWidgetComponent.js -->
<g id="edge5" class="edge">
<title>dist/lib/controllers/devices/midistructor/widgets/AllMidiStructorWidgets.js&#45;&gt;dist/lib/controllers/devices/midistructor/widgets/ActiveClipWidgetComponent.js</title>
<path fill="none" stroke="#757575" d="M579.75,-178.35C630.59,-192.88 719.32,-216.59 797,-229 814.71,-231.83 833.14,-234.28 851.68,-236.41"/>
<polygon fill="#757575" stroke="#757575" points="851.09,-239.87 861.41,-237.49 851.86,-232.91 851.09,-239.87"/>
</g>
<!-- dist/lib/controllers/devices/midistructor/widgets/ButtonWidgetComponent.js -->
<g id="node6" class="node">
<title>dist/lib/controllers/devices/midistructor/widgets/ButtonWidgetComponent.js</title>
<path fill="none" stroke="#ff6c60" d="M1289.21,-51.88C1289.21,-51.88 842.04,-51.88 842.04,-51.88 838.08,-51.88 834.12,-47.92 834.12,-43.96 834.12,-43.96 834.12,-36.04 834.12,-36.04 834.12,-32.08 838.08,-28.12 842.04,-28.12 842.04,-28.12 1289.21,-28.12 1289.21,-28.12 1293.17,-28.12 1297.12,-32.08 1297.12,-36.04 1297.12,-36.04 1297.12,-43.96 1297.12,-43.96 1297.12,-47.92 1293.17,-51.88 1289.21,-51.88"/>
<text text-anchor="middle" x="1065.62" y="-34.58" font-family="Arial" font-size="14.00" fill="#ff6c60">dist/lib/controllers/devices/midistructor/widgets/ButtonWidgetComponent.js</text>
</g>
<!-- dist/lib/controllers/devices/midistructor/widgets/AllMidiStructorWidgets.js&#45;&gt;dist/lib/controllers/devices/midistructor/widgets/ButtonWidgetComponent.js -->
<g id="edge6" class="edge">
<title>dist/lib/controllers/devices/midistructor/widgets/AllMidiStructorWidgets.js&#45;&gt;dist/lib/controllers/devices/midistructor/widgets/ButtonWidgetComponent.js</title>
<path fill="none" stroke="#757575" d="M561.12,-153.78C605.46,-131.01 706.1,-82.45 797,-61 807.72,-58.47 818.73,-56.23 829.91,-54.25"/>
<polygon fill="#757575" stroke="#757575" points="830.36,-57.72 839.63,-52.6 829.19,-50.82 830.36,-57.72"/>
</g>
<!-- dist/lib/controllers/devices/midistructor/widgets/KnobWidgetComponent.js -->
<g id="node7" class="node">
<title>dist/lib/controllers/devices/midistructor/widgets/KnobWidgetComponent.js</title>
<path fill="none" stroke="#ff6c60" d="M1285.46,-93.88C1285.46,-93.88 845.79,-93.88 845.79,-93.88 841.83,-93.88 837.88,-89.92 837.88,-85.96 837.88,-85.96 837.88,-78.04 837.88,-78.04 837.88,-74.08 841.83,-70.12 845.79,-70.12 845.79,-70.12 1285.46,-70.12 1285.46,-70.12 1289.42,-70.12 1293.38,-74.08 1293.38,-78.04 1293.38,-78.04 1293.38,-85.96 1293.38,-85.96 1293.38,-89.92 1289.42,-93.88 1285.46,-93.88"/>
<text text-anchor="middle" x="1065.62" y="-76.58" font-family="Arial" font-size="14.00" fill="#ff6c60">dist/lib/controllers/devices/midistructor/widgets/KnobWidgetComponent.js</text>
</g>
<!-- dist/lib/controllers/devices/midistructor/widgets/AllMidiStructorWidgets.js&#45;&gt;dist/lib/controllers/devices/midistructor/widgets/KnobWidgetComponent.js -->
<g id="edge7" class="edge">
<title>dist/lib/controllers/devices/midistructor/widgets/AllMidiStructorWidgets.js&#45;&gt;dist/lib/controllers/devices/midistructor/widgets/KnobWidgetComponent.js</title>
<path fill="none" stroke="#757575" d="M579.75,-153.65C630.59,-139.12 719.32,-115.41 797,-103 814.71,-100.17 833.14,-97.72 851.68,-95.59"/>
<polygon fill="#757575" stroke="#757575" points="851.86,-99.09 861.41,-94.51 851.09,-92.13 851.86,-99.09"/>
</g>
<!-- dist/lib/controllers/devices/midistructor/widgets/MetronomeControlWidgetComponent.js -->
<g id="node8" class="node">
<title>dist/lib/controllers/devices/midistructor/widgets/MetronomeControlWidgetComponent.js</title>
<path fill="none" stroke="#ff6c60" d="M1326.33,-135.88C1326.33,-135.88 804.92,-135.88 804.92,-135.88 800.96,-135.88 797,-131.92 797,-127.96 797,-127.96 797,-120.04 797,-120.04 797,-116.08 800.96,-112.12 804.92,-112.12 804.92,-112.12 1326.33,-112.12 1326.33,-112.12 1330.29,-112.12 1334.25,-116.08 1334.25,-120.04 1334.25,-120.04 1334.25,-127.96 1334.25,-127.96 1334.25,-131.92 1330.29,-135.88 1326.33,-135.88"/>
<text text-anchor="middle" x="1065.62" y="-118.58" font-family="Arial" font-size="14.00" fill="#ff6c60">dist/lib/controllers/devices/midistructor/widgets/MetronomeControlWidgetComponent.js</text>
</g>
<!-- dist/lib/controllers/devices/midistructor/widgets/AllMidiStructorWidgets.js&#45;&gt;dist/lib/controllers/devices/midistructor/widgets/MetronomeControlWidgetComponent.js -->
<g id="edge8" class="edge">
<title>dist/lib/controllers/devices/midistructor/widgets/AllMidiStructorWidgets.js&#45;&gt;dist/lib/controllers/devices/midistructor/widgets/MetronomeControlWidgetComponent.js</title>
<path fill="none" stroke="#757575" d="M689.67,-153.64C724.9,-150.78 762.26,-147.77 797,-145 828.58,-142.48 862.27,-139.82 894.71,-137.27"/>
<polygon fill="#757575" stroke="#757575" points="894.92,-140.76 904.61,-136.49 894.37,-133.78 894.92,-140.76"/>
</g>
<!-- dist/lib/controllers/devices/midistructor/widgets/NavClipsWidgetComponent.js -->
<g id="node9" class="node">
<title>dist/lib/controllers/devices/midistructor/widgets/NavClipsWidgetComponent.js</title>
<path fill="none" stroke="#ff6c60" d="M1296.71,-219.88C1296.71,-219.88 834.54,-219.88 834.54,-219.88 830.58,-219.88 826.62,-215.92 826.62,-211.96 826.62,-211.96 826.62,-204.04 826.62,-204.04 826.62,-200.08 830.58,-196.12 834.54,-196.12 834.54,-196.12 1296.71,-196.12 1296.71,-196.12 1300.67,-196.12 1304.62,-200.08 1304.62,-204.04 1304.62,-204.04 1304.62,-211.96 1304.62,-211.96 1304.62,-215.92 1300.67,-219.88 1296.71,-219.88"/>
<text text-anchor="middle" x="1065.62" y="-202.57" font-family="Arial" font-size="14.00" fill="#ff6c60">dist/lib/controllers/devices/midistructor/widgets/NavClipsWidgetComponent.js</text>
</g>
<!-- dist/lib/controllers/devices/midistructor/widgets/AllMidiStructorWidgets.js&#45;&gt;dist/lib/controllers/devices/midistructor/widgets/NavClipsWidgetComponent.js -->
<g id="edge9" class="edge">
<title>dist/lib/controllers/devices/midistructor/widgets/AllMidiStructorWidgets.js&#45;&gt;dist/lib/controllers/devices/midistructor/widgets/NavClipsWidgetComponent.js</title>
<path fill="none" stroke="#757575" d="M689.67,-178.36C724.9,-181.22 762.26,-184.23 797,-187 828.58,-189.52 862.27,-192.18 894.71,-194.73"/>
<polygon fill="#757575" stroke="#757575" points="894.37,-198.22 904.61,-195.51 894.92,-191.24 894.37,-198.22"/>
</g>
<!-- dist/lib/controllers/devices/midistructor/widgets/TrackSectionsWidgetComponent.js -->
<g id="node10" class="node">
<title>dist/lib/controllers/devices/midistructor/widgets/TrackSectionsWidgetComponent.js</title>
<path fill="none" stroke="#ff6c60" d="M1312.46,-177.88C1312.46,-177.88 818.79,-177.88 818.79,-177.88 814.83,-177.88 810.88,-173.92 810.88,-169.96 810.88,-169.96 810.88,-162.04 810.88,-162.04 810.88,-158.08 814.83,-154.12 818.79,-154.12 818.79,-154.12 1312.46,-154.12 1312.46,-154.12 1316.42,-154.12 1320.38,-158.08 1320.38,-162.04 1320.38,-162.04 1320.38,-169.96 1320.38,-169.96 1320.38,-173.92 1316.42,-177.88 1312.46,-177.88"/>
<text text-anchor="middle" x="1065.62" y="-160.57" font-family="Arial" font-size="14.00" fill="#ff6c60">dist/lib/controllers/devices/midistructor/widgets/TrackSectionsWidgetComponent.js</text>
</g>
<!-- dist/lib/controllers/devices/midistructor/widgets/AllMidiStructorWidgets.js&#45;&gt;dist/lib/controllers/devices/midistructor/widgets/TrackSectionsWidgetComponent.js -->
<g id="edge10" class="edge">
<title>dist/lib/controllers/devices/midistructor/widgets/AllMidiStructorWidgets.js&#45;&gt;dist/lib/controllers/devices/midistructor/widgets/TrackSectionsWidgetComponent.js</title>
<path fill="none" stroke="#757575" d="M761.34,-166C773.91,-166 786.61,-166 799.32,-166"/>
<polygon fill="#757575" stroke="#757575" points="798.97,-169.5 808.97,-166 798.97,-162.5 798.97,-169.5"/>
</g>
<!-- dist/lib/controllers/devices/midistructor/MIDIStructorWidgets.js&#45;&gt;dist/lib/controllers/devices/MIDIStructorUI.js -->
<g id="edge2" class="edge">
<title>dist/lib/controllers/devices/midistructor/MIDIStructorWidgets.js&#45;&gt;dist/lib/controllers/devices/MIDIStructorUI.js</title>
<path fill="none" stroke="#757575" d="M881.96,-279.63C853.48,-277.14 824.42,-274.26 797,-271 586.06,-245.92 339.17,-202.74 216.62,-180.37"/>
<polygon fill="#757575" stroke="#757575" points="217.47,-176.97 207.01,-178.61 216.21,-183.86 217.47,-176.97"/>
</g>
<!-- dist/lib/controllers/widgets/ActiveClipWidget.js -->
<g id="node5" class="node">
<title>dist/lib/controllers/widgets/ActiveClipWidget.js</title>
<path fill="none" stroke="#ff6c60" d="M1678.71,-261.88C1678.71,-261.88 1404.79,-261.88 1404.79,-261.88 1400.83,-261.88 1396.88,-257.92 1396.88,-253.96 1396.88,-253.96 1396.88,-246.04 1396.88,-246.04 1396.88,-242.08 1400.83,-238.12 1404.79,-238.12 1404.79,-238.12 1678.71,-238.12 1678.71,-238.12 1682.67,-238.12 1686.62,-242.08 1686.62,-246.04 1686.62,-246.04 1686.62,-253.96 1686.62,-253.96 1686.62,-257.92 1682.67,-261.88 1678.71,-261.88"/>
<text text-anchor="middle" x="1541.75" y="-244.57" font-family="Arial" font-size="14.00" fill="#ff6c60">dist/lib/controllers/widgets/ActiveClipWidget.js</text>
</g>
<!-- dist/lib/controllers/devices/midistructor/widgets/ActiveClipWidgetComponent.js&#45;&gt;dist/lib/controllers/widgets/ActiveClipWidget.js -->
<g id="edge3" class="edge">
<title>dist/lib/controllers/devices/midistructor/widgets/ActiveClipWidgetComponent.js&#45;&gt;dist/lib/controllers/widgets/ActiveClipWidget.js</title>
<path fill="none" stroke="#757575" d="M1307.85,-250C1334.14,-250 1360.36,-250 1385.21,-250"/>
<polygon fill="#757575" stroke="#757575" points="1385.02,-253.5 1395.02,-250 1385.02,-246.5 1385.02,-253.5"/>
</g>
<!-- dist/lib/project/ProjectHooks.js -->
<g id="node18" class="node">
<title>dist/lib/project/ProjectHooks.js</title>
<path fill="none" stroke="#ff6c60" d="M1937.33,-179.88C1937.33,-179.88 1757.17,-179.88 1757.17,-179.88 1753.21,-179.88 1749.25,-175.92 1749.25,-171.96 1749.25,-171.96 1749.25,-164.04 1749.25,-164.04 1749.25,-160.08 1753.21,-156.12 1757.17,-156.12 1757.17,-156.12 1937.33,-156.12 1937.33,-156.12 1941.29,-156.12 1945.25,-160.08 1945.25,-164.04 1945.25,-164.04 1945.25,-171.96 1945.25,-171.96 1945.25,-175.92 1941.29,-179.88 1937.33,-179.88"/>
<text text-anchor="middle" x="1847.25" y="-162.57" font-family="Arial" font-size="14.00" fill="#ff6c60">dist/lib/project/ProjectHooks.js</text>
</g>
<!-- dist/lib/controllers/widgets/ActiveClipWidget.js&#45;&gt;dist/lib/project/ProjectHooks.js -->
<g id="edge17" class="edge">
<title>dist/lib/controllers/widgets/ActiveClipWidget.js&#45;&gt;dist/lib/project/ProjectHooks.js</title>
<path fill="none" stroke="#757575" d="M1675.72,-237.67C1688.51,-235.28 1701.2,-232.42 1713.25,-229 1749.55,-218.71 1788.5,-199.82 1814.81,-185.78"/>
<polygon fill="#757575" stroke="#757575" points="1816.47,-188.86 1823.59,-181.01 1813.13,-182.71 1816.47,-188.86"/>
</g>
<!-- dist/lib/controllers/widgets/ButtonWidget.js -->
<g id="node11" class="node">
<title>dist/lib/controllers/widgets/ButtonWidget.js</title>
<path fill="none" stroke="#ff6c60" d="M1668.21,-51.88C1668.21,-51.88 1415.29,-51.88 1415.29,-51.88 1411.33,-51.88 1407.38,-47.92 1407.38,-43.96 1407.38,-43.96 1407.38,-36.04 1407.38,-36.04 1407.38,-32.08 1411.33,-28.12 1415.29,-28.12 1415.29,-28.12 1668.21,-28.12 1668.21,-28.12 1672.17,-28.12 1676.12,-32.08 1676.12,-36.04 1676.12,-36.04 1676.12,-43.96 1676.12,-43.96 1676.12,-47.92 1672.17,-51.88 1668.21,-51.88"/>
<text text-anchor="middle" x="1541.75" y="-34.58" font-family="Arial" font-size="14.00" fill="#ff6c60">dist/lib/controllers/widgets/ButtonWidget.js</text>
</g>
<!-- dist/lib/controllers/devices/midistructor/widgets/ButtonWidgetComponent.js&#45;&gt;dist/lib/controllers/widgets/ButtonWidget.js -->
<g id="edge11" class="edge">
<title>dist/lib/controllers/devices/midistructor/widgets/ButtonWidgetComponent.js&#45;&gt;dist/lib/controllers/widgets/ButtonWidget.js</title>
<path fill="none" stroke="#757575" d="M1297.44,-40C1330.89,-40 1364.51,-40 1395.63,-40"/>
<polygon fill="#757575" stroke="#757575" points="1395.46,-43.5 1405.46,-40 1395.46,-36.5 1395.46,-43.5"/>
</g>
<!-- dist/lib/controllers/widgets/KnobWidget.js -->
<g id="node12" class="node">
<title>dist/lib/controllers/widgets/KnobWidget.js</title>
<path fill="none" stroke="#ff6c60" d="M1664.46,-93.88C1664.46,-93.88 1419.04,-93.88 1419.04,-93.88 1415.08,-93.88 1411.12,-89.92 1411.12,-85.96 1411.12,-85.96 1411.12,-78.04 1411.12,-78.04 1411.12,-74.08 1415.08,-70.12 1419.04,-70.12 1419.04,-70.12 1664.46,-70.12 1664.46,-70.12 1668.42,-70.12 1672.38,-74.08 1672.38,-78.04 1672.38,-78.04 1672.38,-85.96 1672.38,-85.96 1672.38,-89.92 1668.42,-93.88 1664.46,-93.88"/>
<text text-anchor="middle" x="1541.75" y="-76.58" font-family="Arial" font-size="14.00" fill="#ff6c60">dist/lib/controllers/widgets/KnobWidget.js</text>
</g>
<!-- dist/lib/controllers/devices/midistructor/widgets/KnobWidgetComponent.js&#45;&gt;dist/lib/controllers/widgets/KnobWidget.js -->
<g id="edge12" class="edge">
<title>dist/lib/controllers/devices/midistructor/widgets/KnobWidgetComponent.js&#45;&gt;dist/lib/controllers/widgets/KnobWidget.js</title>
<path fill="none" stroke="#757575" d="M1293.62,-82C1329.74,-82 1366.17,-82 1399.55,-82"/>
<polygon fill="#757575" stroke="#757575" points="1399.23,-85.5 1409.23,-82 1399.23,-78.5 1399.23,-85.5"/>
</g>
<!-- dist/lib/controllers/widgets/MetronomeControlWidget.js -->
<g id="node13" class="node">
<title>dist/lib/controllers/widgets/MetronomeControlWidget.js</title>
<path fill="none" stroke="#ff6c60" d="M1705.33,-135.88C1705.33,-135.88 1378.17,-135.88 1378.17,-135.88 1374.21,-135.88 1370.25,-131.92 1370.25,-127.96 1370.25,-127.96 1370.25,-120.04 1370.25,-120.04 1370.25,-116.08 1374.21,-112.12 1378.17,-112.12 1378.17,-112.12 1705.33,-112.12 1705.33,-112.12 1709.29,-112.12 1713.25,-116.08 1713.25,-120.04 1713.25,-120.04 1713.25,-127.96 1713.25,-127.96 1713.25,-131.92 1709.29,-135.88 1705.33,-135.88"/>
<text text-anchor="middle" x="1541.75" y="-118.58" font-family="Arial" font-size="14.00" fill="#ff6c60">dist/lib/controllers/widgets/MetronomeControlWidget.js</text>
</g>
<!-- dist/lib/controllers/devices/midistructor/widgets/MetronomeControlWidgetComponent.js&#45;&gt;dist/lib/controllers/widgets/MetronomeControlWidget.js -->
<g id="edge13" class="edge">
<title>dist/lib/controllers/devices/midistructor/widgets/MetronomeControlWidgetComponent.js&#45;&gt;dist/lib/controllers/widgets/MetronomeControlWidget.js</title>
<path fill="none" stroke="#757575" d="M1334.52,-124C1342.55,-124 1350.54,-124 1358.44,-124"/>
<polygon fill="#757575" stroke="#757575" points="1358.43,-127.5 1368.43,-124 1358.43,-120.5 1358.43,-127.5"/>
</g>
<!-- dist/lib/controllers/widgets/NavClipsWidget.js -->
<g id="node14" class="node">
<title>dist/lib/controllers/widgets/NavClipsWidget.js</title>
<path fill="none" stroke="#ff6c60" d="M1675.71,-219.88C1675.71,-219.88 1407.79,-219.88 1407.79,-219.88 1403.83,-219.88 1399.88,-215.92 1399.88,-211.96 1399.88,-211.96 1399.88,-204.04 1399.88,-204.04 1399.88,-200.08 1403.83,-196.12 1407.79,-196.12 1407.79,-196.12 1675.71,-196.12 1675.71,-196.12 1679.67,-196.12 1683.62,-200.08 1683.62,-204.04 1683.62,-204.04 1683.62,-211.96 1683.62,-211.96 1683.62,-215.92 1679.67,-219.88 1675.71,-219.88"/>
<text text-anchor="middle" x="1541.75" y="-202.57" font-family="Arial" font-size="14.00" fill="#ff6c60">dist/lib/controllers/widgets/NavClipsWidget.js</text>
</g>
<!-- dist/lib/controllers/devices/midistructor/widgets/NavClipsWidgetComponent.js&#45;&gt;dist/lib/controllers/widgets/NavClipsWidget.js -->
<g id="edge14" class="edge">
<title>dist/lib/controllers/devices/midistructor/widgets/NavClipsWidgetComponent.js&#45;&gt;dist/lib/controllers/widgets/NavClipsWidget.js</title>
<path fill="none" stroke="#757575" d="M1305.08,-208C1333.32,-208 1361.55,-208 1388.14,-208"/>
<polygon fill="#757575" stroke="#757575" points="1387.92,-211.5 1397.92,-208 1387.92,-204.5 1387.92,-211.5"/>
</g>
<!-- dist/lib/controllers/widgets/TrackSectionsWidget.js -->
<g id="node15" class="node">
<title>dist/lib/controllers/widgets/TrackSectionsWidget.js</title>
<path fill="none" stroke="#ff6c60" d="M1691.46,-177.88C1691.46,-177.88 1392.04,-177.88 1392.04,-177.88 1388.08,-177.88 1384.12,-173.92 1384.12,-169.96 1384.12,-169.96 1384.12,-162.04 1384.12,-162.04 1384.12,-158.08 1388.08,-154.12 1392.04,-154.12 1392.04,-154.12 1691.46,-154.12 1691.46,-154.12 1695.42,-154.12 1699.38,-158.08 1699.38,-162.04 1699.38,-162.04 1699.38,-169.96 1699.38,-169.96 1699.38,-173.92 1695.42,-177.88 1691.46,-177.88"/>
<text text-anchor="middle" x="1541.75" y="-160.57" font-family="Arial" font-size="14.00" fill="#ff6c60">dist/lib/controllers/widgets/TrackSectionsWidget.js</text>
</g>
<!-- dist/lib/controllers/devices/midistructor/widgets/TrackSectionsWidgetComponent.js&#45;&gt;dist/lib/controllers/widgets/TrackSectionsWidget.js -->
<g id="edge15" class="edge">
<title>dist/lib/controllers/devices/midistructor/widgets/TrackSectionsWidgetComponent.js&#45;&gt;dist/lib/controllers/widgets/TrackSectionsWidget.js</title>
<path fill="none" stroke="#757575" d="M1320.69,-166C1338.28,-166 1355.74,-166 1372.69,-166"/>
<polygon fill="#757575" stroke="#757575" points="1372.24,-169.5 1382.24,-166 1372.24,-162.5 1372.24,-169.5"/>
</g>
<!-- dist/lib/controllers/pads/Pad.js -->
<g id="node16" class="node">
<title>dist/lib/controllers/pads/Pad.js</title>
<path fill="none" stroke="#ff6c60" d="M1936.58,-133.88C1936.58,-133.88 1757.92,-133.88 1757.92,-133.88 1753.96,-133.88 1750,-129.92 1750,-125.96 1750,-125.96 1750,-118.04 1750,-118.04 1750,-114.08 1753.96,-110.12 1757.92,-110.12 1757.92,-110.12 1936.58,-110.12 1936.58,-110.12 1940.54,-110.12 1944.5,-114.08 1944.5,-118.04 1944.5,-118.04 1944.5,-125.96 1944.5,-125.96 1944.5,-129.92 1940.54,-133.88 1936.58,-133.88"/>
<text text-anchor="middle" x="1847.25" y="-116.58" font-family="Arial" font-size="14.00" fill="#ff6c60">dist/lib/controllers/pads/Pad.js</text>
</g>
<!-- dist/lib/controllers/widgets/ButtonWidget.js&#45;&gt;dist/lib/controllers/pads/Pad.js -->
<g id="edge18" class="edge">
<title>dist/lib/controllers/widgets/ButtonWidget.js&#45;&gt;dist/lib/controllers/pads/Pad.js</title>
<path fill="none" stroke="#757575" d="M1675.72,-52.33C1688.51,-54.72 1701.2,-57.58 1713.25,-61 1749.55,-71.29 1788.5,-90.18 1814.81,-104.22"/>
<polygon fill="#757575" stroke="#757575" points="1813.13,-107.29 1823.59,-108.99 1816.47,-101.14 1813.13,-107.29"/>
</g>
<!-- dist/lib/controllers/widgets/KnobWidget.js&#45;&gt;dist/lib/controllers/pads/Pad.js -->
<g id="edge19" class="edge">
<title>dist/lib/controllers/widgets/KnobWidget.js&#45;&gt;dist/lib/controllers/pads/Pad.js</title>
<path fill="none" stroke="#757575" d="M1645.57,-94.34C1667.9,-97.11 1691.37,-100.09 1713.25,-103 1725.2,-104.59 1737.74,-106.31 1750.16,-108.05"/>
<polygon fill="#757575" stroke="#757575" points="1749.61,-111.5 1760,-109.43 1750.58,-104.57 1749.61,-111.5"/>
</g>
<!-- dist/lib/controllers/widgets/MetronomeControlWidget.js&#45;&gt;dist/lib/controllers/pads/Pad.js -->
<g id="edge20" class="edge">
<title>dist/lib/controllers/widgets/MetronomeControlWidget.js&#45;&gt;dist/lib/controllers/pads/Pad.js</title>
<path fill="none" stroke="#757575" d="M1713.57,-122.87C1721.91,-122.82 1730.17,-122.76 1738.25,-122.71"/>
<polygon fill="#757575" stroke="#757575" points="1738.05,-126.21 1748.02,-122.65 1738,-119.21 1738.05,-126.21"/>
</g>
<!-- dist/lib/controllers/widgets/MetronomeControlWidget.js&#45;&gt;dist/lib/project/ProjectHooks.js -->
<g id="edge21" class="edge">
<title>dist/lib/controllers/widgets/MetronomeControlWidget.js&#45;&gt;dist/lib/project/ProjectHooks.js</title>
<path fill="none" stroke="#757575" d="M1649.73,-136.37C1670.81,-139.03 1692.75,-141.97 1713.25,-145 1730.83,-147.6 1749.66,-150.68 1767.46,-153.72"/>
<polygon fill="#757575" stroke="#757575" points="1766.75,-157.15 1777.2,-155.4 1767.94,-150.25 1766.75,-157.15"/>
</g>
<!-- dist/lib/controllers/widgets/NavClipsWidget.js&#45;&gt;dist/lib/controllers/pads/Pad.js -->
<g id="edge22" class="edge">
<title>dist/lib/controllers/widgets/NavClipsWidget.js&#45;&gt;dist/lib/controllers/pads/Pad.js</title>
<path fill="none" stroke="#757575" d="M1683.86,-198.85C1694.08,-195.72 1703.99,-191.82 1713.25,-187 1734.46,-175.95 1728.8,-159.4 1749.25,-147 1754.78,-143.65 1760.74,-140.74 1766.9,-138.23"/>
<polygon fill="#757575" stroke="#757575" points="1767.82,-141.62 1775.99,-134.87 1765.4,-135.05 1767.82,-141.62"/>
</g>
<!-- dist/lib/controllers/widgets/NavClipsWidget.js&#45;&gt;dist/lib/project/ProjectHooks.js -->
<g id="edge23" class="edge">
<title>dist/lib/controllers/widgets/NavClipsWidget.js&#45;&gt;dist/lib/project/ProjectHooks.js</title>
<path fill="none" stroke="#757575" d="M1645.57,-195.66C1667.9,-192.89 1691.37,-189.91 1713.25,-187 1725.2,-185.41 1737.74,-183.69 1750.16,-181.95"/>
<polygon fill="#757575" stroke="#757575" points="1750.58,-185.43 1760,-180.57 1749.61,-178.5 1750.58,-185.43"/>
</g>
<!-- dist/lib/controllers/widgets/TrackSectionsWidget.js&#45;&gt;dist/lib/controllers/pads/Pad.js -->
<g id="edge24" class="edge">
<title>dist/lib/controllers/widgets/TrackSectionsWidget.js&#45;&gt;dist/lib/controllers/pads/Pad.js</title>
<path fill="none" stroke="#757575" d="M1649.73,-153.63C1670.81,-150.97 1692.75,-148.03 1713.25,-145 1730.83,-142.4 1749.66,-139.32 1767.46,-136.28"/>
<polygon fill="#757575" stroke="#757575" points="1767.94,-139.75 1777.2,-134.6 1766.75,-132.85 1767.94,-139.75"/>
</g>
<!-- dist/lib/controllers/widgets/TrackSectionsWidget.js&#45;&gt;dist/lib/project/ProjectHooks.js -->
<g id="edge25" class="edge">
<title>dist/lib/controllers/widgets/TrackSectionsWidget.js&#45;&gt;dist/lib/project/ProjectHooks.js</title>
<path fill="none" stroke="#757575" d="M1699.83,-167.04C1712.68,-167.12 1725.47,-167.2 1737.85,-167.29"/>
<polygon fill="#757575" stroke="#757575" points="1737.55,-170.78 1747.57,-167.35 1737.6,-163.78 1737.55,-170.78"/>
</g>
<!-- dist/lib/hooks/ForeverBeat.js -->
<g id="node17" class="node">
<title>dist/lib/hooks/ForeverBeat.js</title>
<path fill="none" stroke="#ff6c60" d="M2158.83,-130.88C2158.83,-130.88 1989.17,-130.88 1989.17,-130.88 1985.21,-130.88 1981.25,-126.92 1981.25,-122.96 1981.25,-122.96 1981.25,-115.04 1981.25,-115.04 1981.25,-111.08 1985.21,-107.12 1989.17,-107.12 1989.17,-107.12 2158.83,-107.12 2158.83,-107.12 2162.79,-107.12 2166.75,-111.08 2166.75,-115.04 2166.75,-115.04 2166.75,-122.96 2166.75,-122.96 2166.75,-126.92 2162.79,-130.88 2158.83,-130.88"/>
<text text-anchor="middle" x="2074" y="-113.58" font-family="Arial" font-size="14.00" fill="#ff6c60">dist/lib/hooks/ForeverBeat.js</text>
</g>
<!-- dist/lib/controllers/pads/Pad.js&#45;&gt;dist/lib/hooks/ForeverBeat.js -->
<g id="edge16" class="edge">
<title>dist/lib/controllers/pads/Pad.js&#45;&gt;dist/lib/hooks/ForeverBeat.js</title>
<path fill="none" stroke="#757575" d="M1944.87,-120.71C1953.13,-120.6 1961.51,-120.49 1969.82,-120.38"/>
<polygon fill="#757575" stroke="#757575" points="1969.62,-123.88 1979.58,-120.25 1969.53,-116.88 1969.62,-123.88"/>
</g>
<!-- dist/lib/project/ProjectMidi.js -->
<g id="node19" class="node">
<title>dist/lib/project/ProjectMidi.js</title>
<path fill="none" stroke="#ff6c60" d="M2378.08,-154.88C2378.08,-154.88 2210.67,-154.88 2210.67,-154.88 2206.71,-154.88 2202.75,-150.92 2202.75,-146.96 2202.75,-146.96 2202.75,-139.04 2202.75,-139.04 2202.75,-135.08 2206.71,-131.12 2210.67,-131.12 2210.67,-131.12 2378.08,-131.12 2378.08,-131.12 2382.04,-131.12 2386,-135.08 2386,-139.04 2386,-139.04 2386,-146.96 2386,-146.96 2386,-150.92 2382.04,-154.88 2378.08,-154.88"/>
<text text-anchor="middle" x="2294.38" y="-137.57" font-family="Arial" font-size="14.00" fill="#ff6c60">dist/lib/project/ProjectMidi.js</text>
</g>
<!-- dist/lib/hooks/ForeverBeat.js&#45;&gt;dist/lib/project/ProjectMidi.js -->
<g id="edge26" class="edge">
<title>dist/lib/hooks/ForeverBeat.js&#45;&gt;dist/lib/project/ProjectMidi.js</title>
<path fill="none" stroke="#757575" d="M2166.98,-129.11C2174.98,-129.99 2183.11,-130.88 2191.19,-131.77"/>
<polygon fill="#757575" stroke="#757575" points="2190.72,-135.24 2201.05,-132.85 2191.49,-128.28 2190.72,-135.24"/>
</g>
<!-- dist/lib/project/ProjectHooks.js&#45;&gt;dist/lib/project/ProjectMidi.js -->
<g id="edge27" class="edge">
<title>dist/lib/project/ProjectHooks.js&#45;&gt;dist/lib/project/ProjectMidi.js</title>
<path fill="none" stroke="#757575" d="M1945.66,-156.83C2018.31,-151.38 2117.31,-145.79 2191.1,-142.96"/>
<polygon fill="#757575" stroke="#757575" points="2190.88,-146.47 2200.74,-142.6 2190.62,-139.48 2190.88,-146.47"/>
</g>
<!-- dist/lib/project/ProjectMidi.js&#45;&gt;dist/lib/controllers/devices/MIDIStructorUI.js -->
<g id="edge28" class="edge">
<title>dist/lib/project/ProjectMidi.js&#45;&gt;dist/lib/controllers/devices/MIDIStructorUI.js</title>
<path fill="none" stroke="#757575" d="M2271.93,-130.81C2209.04,-96.23 2018.7,0 1848.25,0 1064.62,0 1064.62,0 1064.62,0 725.82,0 328.05,-109.19 189.82,-150.46"/>
<polygon fill="#757575" stroke="#757575" points="189.19,-146.99 180.62,-153.22 191.2,-153.7 189.19,-146.99"/>
</g>
<!-- dist/lib/project/ProjectMidi.js&#45;&gt;dist/lib/project/ProjectHooks.js -->
<g id="edge29" class="edge">
<title>dist/lib/project/ProjectMidi.js&#45;&gt;dist/lib/project/ProjectHooks.js</title>
<path fill="none" stroke="#757575" d="M2202.25,-153.69C2131.19,-159.13 2032.26,-164.8 1957.05,-167.79"/>
<polygon fill="#757575" stroke="#757575" points="1957.03,-164.28 1947.17,-168.17 1957.3,-171.28 1957.03,-164.28"/>
</g>
</g>
</svg>
